<?xml version="1.0" encoding="UTF-8"?>
<!-- Generator: Adobe Illustrator 16.0.0, SVG Export Plug-In . SVG Version: 6.00 Build 0)  -->
<!DOCTYPE svg PUBLIC "-//W3C//DTD SVG 1.1//EN" "http://www.w3.org/Graphics/SVG/1.1/DTD/svg11.dtd">
<svg version="1.1" id="Layer_1" xmlns="http://www.w3.org/2000/svg" xmlns:xlink="http://www.w3.org/1999/xlink" x="0px" y="0px" width="15.367px" height="16px" viewBox="0 0 15.367 16" enable-background="new 0 0 15.367 16" xml:space="preserve">
<path fill-rule="evenodd" clip-rule="evenodd" fill="#005BAA" d="M15.117,6.133c-0.448,0-0.813,0.366-0.813,0.817  c0,0.138-0.109,0.25-0.249,0.25c-0.137,0-0.248-0.112-0.248-0.25c0-0.451-0.365-0.817-0.813-0.817c-0.139,0-0.248-0.111-0.248-0.25  c0-0.138,0.109-0.25,0.248-0.25c0.447,0,0.813-0.367,0.813-0.817c0-0.138,0.111-0.25,0.248-0.25c0.14,0,0.249,0.112,0.249,0.25  c0,0.45,0.365,0.817,0.813,0.817c0.138,0,0.25,0.112,0.25,0.25C15.367,6.021,15.255,6.133,15.117,6.133z M14.055,5.587  c-0.08,0.114-0.181,0.213-0.293,0.296c0.112,0.083,0.213,0.182,0.293,0.296c0.083-0.114,0.183-0.213,0.296-0.296  C14.237,5.8,14.138,5.701,14.055,5.587z M5.059,9.859c0.035-0.1,0.13-0.169,0.236-0.169h1.644L7.447,8.12  C7.48,8.018,7.576,7.947,7.684,7.947c0.107,0,0.203,0.071,0.236,0.173L8.428,9.69h1.646c0.106,0,0.203,0.07,0.235,0.173  c0.034,0.103-0.003,0.216-0.089,0.278l-1.331,0.972l0.508,1.571c0.029,0.094,0.001,0.198-0.071,0.264  c-0.088,0.077-0.218,0.083-0.313,0.016l-1.33-0.972l-1.331,0.972c-0.089,0.064-0.213,0.062-0.3-0.006  c-0.081-0.064-0.114-0.175-0.083-0.273l0.508-1.571l-1.331-0.972C5.06,10.078,5.023,9.961,5.059,9.859z M6.917,10.816  c0.087,0.063,0.124,0.176,0.09,0.279L6.68,12.107l0.857-0.626c0.085-0.063,0.207-0.063,0.292,0l0.858,0.626l-0.328-1.012  c-0.033-0.104,0.003-0.217,0.09-0.279l0.857-0.626H8.248c-0.107,0-0.204-0.069-0.236-0.173L7.684,9.006l-0.328,1.012  c-0.033,0.104-0.129,0.173-0.236,0.173H6.06L6.917,10.816z M4.647,13.016c-0.11,0.084-0.266,0.062-0.349-0.049  c-0.554-0.74-0.847-1.621-0.847-2.55c0-2.343,1.898-4.251,4.232-4.251c2.333,0,4.232,1.906,4.232,4.249  c0,2.344-1.899,4.251-4.232,4.251c-0.924,0-1.803-0.294-2.54-0.851c-0.11-0.082-0.131-0.239-0.049-0.35  c0.082-0.11,0.238-0.132,0.348-0.05c0.65,0.491,1.426,0.751,2.241,0.751c2.059,0,3.733-1.684,3.733-3.75  c0-2.069-1.675-3.75-3.733-3.75S3.95,8.348,3.95,10.417c0,0.818,0.258,1.597,0.747,2.249C4.779,12.776,4.756,12.934,4.647,13.016z   M11.271,6.151c0.228,0.193,0.44,0.406,0.638,0.636c0.088,0.103,0.076,0.264-0.028,0.353c-0.102,0.089-0.262,0.076-0.35-0.027  c-0.965-1.131-2.366-1.78-3.847-1.78c-2.792,0-5.062,2.281-5.062,5.084c0,2.803,2.27,5.083,5.062,5.083  c2.79,0,5.063-2.28,5.063-5.083c0-0.895-0.235-1.773-0.679-2.542c-0.069-0.12-0.026-0.272,0.091-0.341  c0.12-0.069,0.271-0.029,0.34,0.09c0.486,0.845,0.745,1.811,0.745,2.793c0,3.078-2.494,5.582-5.56,5.582s-5.56-2.504-5.56-5.582  c0-1.708,0.768-3.238,1.973-4.263L1.352,0.357C1.274,0.194,1.397,0,1.577,0h3.528C5.201,0,5.289,0.055,5.33,0.143l2.221,4.692  c0.044,0,0.088-0.001,0.132-0.001c0.043,0,0.086,0.001,0.132,0.002l2.222-4.692C10.077,0.055,10.166,0,10.263,0h3.526  c0.181,0,0.304,0.194,0.226,0.357L11.271,6.151z M1.971,0.5L4.5,5.842c0.155-0.109,0.315-0.21,0.481-0.304L2.595,0.5H1.971z   M3.147,0.5l2.28,4.814c0.17-0.077,0.347-0.145,0.527-0.204L3.771,0.5H3.147z M4.948,0.5H4.323l2.119,4.474  C6.63,4.93,6.823,4.897,7.019,4.873L4.948,0.5z M10.42,0.5L8.348,4.873c0.194,0.024,0.387,0.058,0.577,0.101L11.044,0.5H10.42z   M11.596,0.5L9.412,5.11c0.18,0.059,0.356,0.126,0.528,0.204l2.28-4.814H11.596z M12.772,0.5l-2.387,5.037  c0.166,0.092,0.325,0.193,0.481,0.303l2.53-5.34H12.772z M1.56,13.615c0,0.451,0.365,0.818,0.813,0.818  c0.138,0,0.249,0.111,0.249,0.248c0,0.14-0.111,0.251-0.249,0.251c-0.448,0-0.813,0.366-0.813,0.817  c0,0.138-0.111,0.249-0.249,0.249c-0.138,0-0.249-0.111-0.249-0.249c0-0.451-0.365-0.817-0.813-0.817  C0.112,14.933,0,14.821,0,14.682c0-0.137,0.112-0.248,0.249-0.248c0.448,0,0.813-0.367,0.813-0.818c0-0.137,0.111-0.249,0.249-0.249  C1.448,13.366,1.56,13.479,1.56,13.615z M1.311,14.387c-0.082,0.114-0.182,0.214-0.294,0.295c0.112,0.083,0.213,0.184,0.294,0.297  c0.082-0.113,0.181-0.214,0.294-0.297C1.492,14.601,1.393,14.501,1.311,14.387z"/>
</svg>