<?xml version="1.0" encoding="utf-8"?>
<!-- Generator: Adobe Illustrator 16.0.0, SVG Export Plug-In . SVG Version: 6.00 Build 0)  -->
<!DOCTYPE svg PUBLIC "-//W3C//DTD SVG 1.1//EN" "http://www.w3.org/Graphics/SVG/1.1/DTD/svg11.dtd">
<svg version="1.1" id="Layer_1" xmlns="http://www.w3.org/2000/svg" xmlns:xlink="http://www.w3.org/1999/xlink" x="0px" y="0px"
	 width="16px" height="16px" viewBox="0 0 16 16" enable-background="new 0 0 16 16" xml:space="preserve">
<path fill-rule="evenodd" clip-rule="evenodd" fill="#FFFFFF" d="M11.262,12.457c-1.188,0.968-2.695,1.55-4.335,1.55
	C3.107,14.007,0,10.863,0,7.003C0,3.142,3.107,0,6.926,0c3.819,0,6.926,3.142,6.926,7.003c0,1.511-0.481,2.909-1.289,4.055
	c0.929,0.972,3.431,3.597,3.431,3.597l-1.396,1.32C14.598,15.976,12.657,13.844,11.262,12.457z M6.926,1.932
	c-2.766,0-5.015,2.276-5.015,5.072c0,2.796,2.25,5.072,5.015,5.072c2.765,0,5.015-2.275,5.015-5.072
	C11.941,4.208,9.691,1.932,6.926,1.932z"/>
</svg>
