<?xml version="1.0" encoding="UTF-8"?>
<!-- Generator: Adobe Illustrator 16.0.0, SVG Export Plug-In . SVG Version: 6.00 Build 0)  -->
<!DOCTYPE svg PUBLIC "-//W3C//DTD SVG 1.1//EN" "http://www.w3.org/Graphics/SVG/1.1/DTD/svg11.dtd">
<svg version="1.1" id="Layer_1" xmlns="http://www.w3.org/2000/svg" xmlns:xlink="http://www.w3.org/1999/xlink" x="0px" y="0px" width="16px" height="12.193px" viewBox="0 0 16 12.193" enable-background="new 0 0 16 12.193" xml:space="preserve">
<path fill-rule="evenodd" clip-rule="evenodd" fill="#FFFFFF" d="M15.755,4.453c-0.171,0.171-0.391,0.254-0.608,0.254  c-0.22,0-0.437-0.083-0.605-0.254c-3.608-3.632-9.474-3.632-13.08,0c-0.333,0.336-0.877,0.336-1.211,0  c-0.333-0.336-0.333-0.883,0-1.219C2.322,1.147,5.073,0,8.003,0c2.929,0,5.679,1.147,7.751,3.234  C16.09,3.57,16.09,4.117,15.755,4.453z M13.399,5.604c0.333,0.335,0.333,0.883,0,1.219c-0.169,0.169-0.389,0.254-0.605,0.254  c-0.221,0-0.438-0.084-0.605-0.254C9.878,4.5,6.123,4.5,3.811,6.824c-0.334,0.336-0.877,0.336-1.21,0  c-0.333-0.336-0.333-0.884,0-1.219C5.578,2.605,10.42,2.605,13.399,5.604z M8,6.651c1.166,0,2.26,0.456,3.082,1.287  c0.334,0.336,0.334,0.884,0,1.22c-0.165,0.167-0.385,0.25-0.605,0.25c-0.219,0-0.436-0.083-0.605-0.254  C9.372,8.653,8.705,8.375,8,8.375c-0.705,0-1.372,0.278-1.871,0.779c-0.333,0.337-0.877,0.337-1.21,0  c-0.334-0.335-0.334-0.883,0-1.219C5.74,7.107,6.835,6.651,8,6.651z M8,9.892c0.631,0,1.142,0.516,1.142,1.152  c0,0.635-0.511,1.149-1.142,1.149s-1.143-0.515-1.143-1.149C6.856,10.407,7.368,9.892,8,9.892z"/>
</svg>